<?xml version="1.0" encoding="UTF-8"?>
<svg width="120" height="120" viewBox="0 0 120 120" fill="none" xmlns="http://www.w3.org/2000/svg">
  <!-- Simple curved palm tree - just orange, no background -->
  <path d="M60 95L55 75C50 65, 58 60, 60 40C62 60, 70 65, 65 75L60 95Z" fill="#f97316" fill-opacity="0.9"/>
  
  <!-- Curved trunk -->
  <path d="M60 40C58 45, 57 50, 56 55C55 60, 54 65, 55 75L60 95L65 75C66 65, 65 60, 64 55C63 50, 62 45, 60 40Z" fill="#ea580c"/>
  
  <!-- Curved palm leaves -->
  <path d="M60 20C45 25, 35 30, 30 45C25 40, 20 35, 60 20Z" fill="#22c55e"/>
  <path d="M60 20C75 25, 85 30, 90 45C95 40, 100 35, 60 20Z" fill="#16a34a"/>
  <path d="M60 15C40 20, 25 25, 20 40C15 35, 10 30, 60 15Z" fill="#22c55e"/>
  <path d="M60 15C80 20, 95 25, 100 40C105 35, 110 30, 60 15Z" fill="#16a34a"/>
  
  <!-- Single coconut -->
  <circle cx="60" cy="50" r="5" fill="#c2410c"/>
</svg>
