<?xml version="1.0" encoding="UTF-8"?>
<svg width="120" height="120" viewBox="0 0 120 120" fill="none" xmlns="http://www.w3.org/2000/svg">
  <!-- Orange circle background -->
  <circle cx="60" cy="60" r="55" fill="#f97316"/>
  
  <!-- White palm tree -->
  <path d="M60 95L55 75C50 65, 58 60, 60 40C62 60, 70 65, 65 75L60 95Z" fill="white" fill-opacity="0.95"/>
  
  <path d="M60 40C58 45, 57 50, 56 55C55 60, 54 65, 55 75L60 95L65 75C66 65, 65 60, 64 55C63 50, 62 45, 60 40Z" fill="white" fill-opacity="0.8"/>
  
  <!-- White palm leaves -->
  <path d="M60 20C45 25, 35 30, 30 45C25 40, 20 35, 60 20Z" fill="white" fill-opacity="0.9"/>
  <path d="M60 20C75 25, 85 30, 90 45C95 40, 100 35, 60 20Z" fill="white" fill-opacity="0.9"/>
  <path d="M60 15C40 20, 25 25, 20 40C15 35, 10 30, 60 15Z" fill="white" fill-opacity="0.8"/>
  <path d="M60 15C80 20, 95 25, 100 40C105 35, 110 30, 60 15Z" fill="white" fill-opacity="0.8"/>
  
  <!-- Single coconut -->
  <circle cx="60" cy="50" r="5" fill="white" fill-opacity="0.7"/>
</svg>
